<svg width="100" height="101" viewBox="0 0 100 101" fill="none" xmlns="http://www.w3.org/2000/svg">
<path d="M24.9979 49.2402C15.4958 52.2132 9.375 56.8757 9.375 62.1173C9.375 71.0965 27.3292 78.3757 49.4792 78.3757C71.6292 78.3757 89.5833 71.0965 89.5833 62.1173C89.5833 56.8757 83.4625 52.2132 73.9625 49.2402" stroke="black" stroke-linecap="round" stroke-linejoin="round"/>
<path d="M9.375 62.5547C9.375 71.5339 19.1292 83.1484 49.4792 83.1484C79.8292 83.1484 89.5833 71.0964 89.5833 62.1172" stroke="black" stroke-linecap="round" stroke-linejoin="round"/>
<path d="M19.1289 27.5625C19.1289 40.3021 27.6289 65.1958 49.4789 65.1958C71.3289 65.1958 79.8268 40.3021 79.8268 27.5646" stroke="black" stroke-linecap="round" stroke-linejoin="round"/>
<path d="M49.4788 37.2766C66.2395 37.2766 79.8267 32.9281 79.8267 27.5641C79.8267 22.2 66.2395 17.8516 49.4788 17.8516C32.7181 17.8516 19.1309 22.2 19.1309 27.5641C19.1309 32.9281 32.7181 37.2766 49.4788 37.2766Z" stroke="black" stroke-linecap="round" stroke-linejoin="round"/>
<path d="M78.4417 30.4699C74.8917 26.4199 63.2688 23.4512 49.4792 23.4512C35.6896 23.4512 24.0667 26.4199 20.5146 30.472M75.3063 46.5949C87.8896 48.8449 90.6251 41.6845 90.6251 36.297C90.6251 30.9095 88.5584 27.5637 83.8001 27.5637C83.0225 27.5665 82.2555 27.7449 81.5565 28.0854C80.8574 28.4259 80.2442 28.9198 79.7626 29.5303" stroke="black" stroke-linecap="round" stroke-linejoin="round"/>
</svg>
