<svg width="100" height="101" viewBox="0 0 100 101" fill="none" xmlns="http://www.w3.org/2000/svg">
<path d="M54.1666 24.0373C42.3249 12.1957 25.8666 9.45401 17.4082 17.9123M17.4082 17.9123C8.94991 26.3707 11.6957 42.8248 23.5332 54.6665M17.4082 17.9123C18.4291 23.0207 23.8416 34.1415 37.3249 37.8165M38.3791 82.954C47.0707 91.6457 63.9874 88.829 76.1582 76.6582C88.3249 64.4873 91.1457 47.5748 82.4499 38.879C77.2082 39.9248 65.7666 45.4873 61.9874 59.3373C56.5916 79.129 44.6707 80.8498 38.3749 82.9498M38.3832 82.9582C29.6916 74.2623 32.5082 57.3498 44.6791 45.179C56.8499 33.0123 73.7624 30.1915 82.4582 38.8873" stroke="black" stroke-width="1.5" stroke-linecap="round" stroke-linejoin="round"/>
</svg>
