<svg width="25" height="25" viewBox="0 0 25 25" fill="none" xmlns="http://www.w3.org/2000/svg">
<path d="M19.5498 5.36318C18.6329 4.43728 17.5408 3.70315 16.3373 3.20354C15.1338 2.70394 13.8429 2.44886 12.5398 2.45318C7.0798 2.45318 2.6298 6.90318 2.6298 12.3632C2.6298 14.1132 3.0898 15.8132 3.9498 17.3132L2.5498 22.4532L7.7998 21.0732C9.2498 21.8632 10.8798 22.2832 12.5398 22.2832C17.9998 22.2832 22.4498 17.8332 22.4498 12.3732C22.4498 9.72318 21.4198 7.23318 19.5498 5.36318ZM12.5398 20.6032C11.0598 20.6032 9.6098 20.2032 8.3398 19.4532L8.0398 19.2732L4.9198 20.0932L5.7498 17.0532L5.5498 16.7432C4.72735 15.4302 4.29073 13.9125 4.2898 12.3632C4.2898 7.82318 7.9898 4.12318 12.5298 4.12318C14.7298 4.12318 16.7998 4.98318 18.3498 6.54318C19.1174 7.30704 19.7257 8.21572 20.1394 9.21651C20.5531 10.2173 20.764 11.2903 20.7598 12.3732C20.7798 16.9132 17.0798 20.6032 12.5398 20.6032ZM17.0598 14.4432C16.8098 14.3232 15.5898 13.7232 15.3698 13.6332C15.1398 13.5532 14.9798 13.5132 14.8098 13.7532C14.6398 14.0032 14.1698 14.5632 14.0298 14.7232C13.8898 14.8932 13.7398 14.9132 13.4898 14.7832C13.2398 14.6632 12.4398 14.3932 11.4998 13.5532C10.7598 12.8932 10.2698 12.0832 10.1198 11.8332C9.9798 11.5832 10.0998 11.4532 10.2298 11.3232C10.3398 11.2132 10.4798 11.0332 10.5998 10.8932C10.7198 10.7532 10.7698 10.6432 10.8498 10.4832C10.9298 10.3132 10.8898 10.1732 10.8298 10.0532C10.7698 9.93318 10.2698 8.71318 10.0698 8.21318C9.8698 7.73318 9.6598 7.79318 9.5098 7.78318H9.0298C8.8598 7.78318 8.5998 7.84318 8.3698 8.09318C8.1498 8.34318 7.5098 8.94318 7.5098 10.1632C7.5098 11.3832 8.39981 12.5632 8.5198 12.7232C8.6398 12.8932 10.2698 15.3932 12.7498 16.4632C13.3398 16.7232 13.7998 16.8732 14.1598 16.9832C14.7498 17.1732 15.2898 17.1432 15.7198 17.0832C16.1998 17.0132 17.1898 16.4832 17.3898 15.9032C17.5998 15.3232 17.5998 14.8332 17.5298 14.7232C17.4598 14.6132 17.3098 14.5632 17.0598 14.4432Z" fill="white"/>
</svg>
