<svg width="170" height="43" viewBox="0 0 170 43" fill="none" xmlns="http://www.w3.org/2000/svg">
<path d="M7.875 14.5H30.875V29.125C30.875 30.6831 30.2561 32.1775 29.1543 33.2793C28.0525 34.381 26.5582 35 25 35H13.75C12.1919 35 10.6976 34.381 9.59581 33.2793C8.49403 32.1775 7.875 30.6831 7.875 29.125V14.5Z" stroke="white" stroke-width="1.5" stroke-linecap="round" stroke-linejoin="round"/>
<path d="M3.75 35H34.75C34.75 36.0609 34.3286 37.0783 33.5784 37.8284C32.8283 38.5786 31.8109 39 30.75 39H7.87498C6.81412 39 5.79676 38.5786 5.04662 37.8284C4.29647 37.0783 3.87505 36.0609 3.87505 35H3.75Z" stroke="white" stroke-width="1.5" stroke-linecap="round" stroke-linejoin="round"/>
<path d="M11.625 10.125V5.5" stroke="white" stroke-width="1.5" stroke-linecap="round" stroke-linejoin="round"/>
<path d="M26.875 10.25V5.5" stroke="white" stroke-width="1.5" stroke-linecap="round" stroke-linejoin="round"/>
<path d="M19.25 8.375V4" stroke="white" stroke-width="1.5" stroke-linecap="round" stroke-linejoin="round"/>
<path d="M30.8848 17.25H36.8747V21.875C36.8747 23.4995 36.2293 25.0574 35.0807 26.206C33.932 27.3547 32.5092 27.9996 30.8847 27.9996L30.8848 17.25Z" stroke="white" stroke-width="1.5" stroke-linecap="round" stroke-linejoin="round"/>
<path d="M49.1036 12.344C49.6583 12.3653 50.3836 12.3867 51.2796 12.408C52.1756 12.4293 53.0716 12.44 53.9676 12.44C54.9916 12.44 55.9836 12.4293 56.9436 12.408C57.9036 12.3867 58.5863 12.376 58.9916 12.376C61.637 12.376 63.6103 12.8453 64.9116 13.784C66.2343 14.7227 66.8956 15.928 66.8956 17.4C66.8956 18.1467 66.6716 18.904 66.2236 19.672C65.7756 20.44 65.0823 21.1227 64.1436 21.72C63.205 22.3173 61.989 22.7547 60.4956 23.032V23.096C62.501 23.2453 64.0903 23.608 65.2636 24.184C66.437 24.76 67.2796 25.4533 67.7916 26.264C68.3036 27.0747 68.5596 27.9173 68.5596 28.792C68.5596 30.136 68.2076 31.2667 67.5036 32.184C66.7996 33.1013 65.7863 33.8053 64.4636 34.296C63.141 34.7653 61.5623 35 59.7276 35C59.2156 35 58.4796 34.9893 57.5196 34.968C56.5596 34.9253 55.397 34.904 54.0316 34.904C53.093 34.904 52.1756 34.9147 51.2796 34.936C50.3836 34.936 49.6583 34.9573 49.1036 35V34.36C49.7863 34.3173 50.2983 34.232 50.6396 34.104C50.981 33.976 51.205 33.72 51.3116 33.336C51.4396 32.952 51.5036 32.376 51.5036 31.608V15.736C51.5036 14.9467 51.4396 14.3707 51.3116 14.008C51.205 13.624 50.9703 13.368 50.6076 13.24C50.2663 13.0907 49.765 13.0053 49.1036 12.984V12.344ZM58.5756 12.984C57.7436 12.984 57.1996 13.1653 56.9436 13.528C56.709 13.8907 56.5916 14.6267 56.5916 15.736V31.608C56.5916 32.3547 56.645 32.92 56.7516 33.304C56.8796 33.688 57.093 33.944 57.3916 34.072C57.7116 34.2 58.181 34.264 58.7996 34.264C60.3356 34.264 61.4556 33.784 62.1596 32.824C62.885 31.8427 63.2476 30.456 63.2476 28.664C63.2476 27.0213 62.8316 25.752 61.9996 24.856C61.189 23.96 59.8343 23.512 57.9356 23.512H55.2156C55.2156 23.512 55.2156 23.4267 55.2156 23.256C55.2156 23.064 55.2156 22.968 55.2156 22.968H57.9676C58.9703 22.968 59.7383 22.7333 60.2716 22.264C60.805 21.7733 61.1783 21.1333 61.3916 20.344C61.605 19.5333 61.7116 18.6693 61.7116 17.752C61.7116 16.1733 61.4663 14.9893 60.9756 14.2C60.485 13.3893 59.685 12.984 58.5756 12.984ZM78.5396 18.008C80.097 18.008 81.4623 18.296 82.6356 18.872C83.809 19.448 84.7263 20.376 85.3876 21.656C86.049 22.936 86.3796 24.632 86.3796 26.744C86.3796 28.856 86.049 30.552 85.3876 31.832C84.7263 33.0907 83.809 34.008 82.6356 34.584C81.4623 35.16 80.097 35.448 78.5396 35.448C77.025 35.448 75.6703 35.16 74.4756 34.584C73.3023 34.008 72.3743 33.0907 71.6916 31.832C71.0303 30.552 70.6996 28.856 70.6996 26.744C70.6996 24.632 71.0303 22.936 71.6916 21.656C72.3743 20.376 73.3023 19.448 74.4756 18.872C75.6703 18.296 77.025 18.008 78.5396 18.008ZM78.5396 18.648C77.6863 18.648 76.9716 19.288 76.3956 20.568C75.8196 21.8267 75.5316 23.8853 75.5316 26.744C75.5316 29.6027 75.8196 31.6613 76.3956 32.92C76.9716 34.1787 77.6863 34.808 78.5396 34.808C79.4143 34.808 80.129 34.1787 80.6836 32.92C81.2596 31.6613 81.5476 29.6027 81.5476 26.744C81.5476 23.8853 81.2596 21.8267 80.6836 20.568C80.129 19.288 79.4143 18.648 78.5396 18.648ZM99.3854 18.008C100.068 18.008 100.623 18.1573 101.049 18.456C101.476 18.7333 101.785 19.096 101.977 19.544C102.191 19.992 102.297 20.4613 102.297 20.952C102.297 21.7413 102.063 22.392 101.593 22.904C101.145 23.3947 100.548 23.64 99.8014 23.64C99.0547 23.64 98.468 23.4587 98.0414 23.096C97.636 22.712 97.4334 22.2107 97.4334 21.592C97.4334 20.9947 97.5614 20.504 97.8174 20.12C98.0947 19.7147 98.436 19.3733 98.8414 19.096C98.5427 19.0107 98.244 19.0213 97.9454 19.128C97.54 19.192 97.156 19.3627 96.7934 19.64C96.4307 19.896 96.1214 20.2267 95.8654 20.632C95.6094 21.016 95.4067 21.4427 95.2574 21.912C95.108 22.36 95.0334 22.7973 95.0334 23.224V31.704C95.0334 32.728 95.2787 33.4213 95.7694 33.784C96.2814 34.1467 97.0387 34.328 98.0414 34.328V35C97.5507 34.9787 96.836 34.9573 95.8974 34.936C94.9587 34.8933 93.9774 34.872 92.9534 34.872C92.1 34.872 91.236 34.8933 90.3614 34.936C89.4867 34.9573 88.8254 34.9787 88.3774 35V34.328C89.124 34.328 89.6467 34.168 89.9454 33.848C90.2654 33.528 90.4254 32.92 90.4254 32.024V21.944C90.4254 20.984 90.276 20.28 89.9774 19.832C89.7 19.3627 89.1667 19.128 88.3774 19.128V18.456C89.06 18.52 89.7214 18.552 90.3614 18.552C91.2574 18.552 92.0894 18.52 92.8574 18.456C93.6467 18.3707 94.372 18.2533 95.0334 18.104V21.08C95.2894 20.504 95.6307 19.9813 96.0574 19.512C96.484 19.0427 96.9747 18.68 97.5294 18.424C98.084 18.1467 98.7027 18.008 99.3854 18.008ZM111.197 18.008C112.029 18.008 112.787 18.104 113.469 18.296C114.173 18.4667 114.749 18.6907 115.197 18.968C115.752 19.3093 116.179 19.736 116.477 20.248C116.797 20.7387 116.957 21.3147 116.957 21.976C116.957 22.7227 116.723 23.3413 116.253 23.832C115.784 24.3013 115.176 24.536 114.429 24.536C113.683 24.536 113.085 24.3227 112.637 23.896C112.189 23.4693 111.965 22.8933 111.965 22.168C111.965 21.4853 112.179 20.92 112.605 20.472C113.032 20.0027 113.523 19.6933 114.077 19.544C113.907 19.3307 113.651 19.1493 113.309 19C112.968 18.8507 112.584 18.776 112.157 18.776C111.496 18.776 110.909 18.968 110.397 19.352C109.907 19.736 109.491 20.2693 109.149 20.952C108.808 21.6347 108.541 22.4347 108.349 23.352C108.179 24.2693 108.093 25.272 108.093 26.36C108.093 28.0027 108.296 29.2933 108.701 30.232C109.128 31.1707 109.661 31.832 110.301 32.216C110.963 32.6 111.645 32.792 112.349 32.792C112.755 32.792 113.192 32.728 113.661 32.6C114.152 32.472 114.643 32.216 115.133 31.832C115.645 31.448 116.115 30.904 116.541 30.2L117.085 30.392C116.851 31.1813 116.467 31.9707 115.933 32.76C115.4 33.5493 114.707 34.2 113.853 34.712C113 35.2027 111.955 35.448 110.717 35.448C109.331 35.448 108.072 35.1493 106.941 34.552C105.832 33.9333 104.936 32.9947 104.253 31.736C103.592 30.456 103.261 28.8133 103.261 26.808C103.261 24.888 103.603 23.2773 104.285 21.976C104.989 20.6533 105.939 19.6613 107.133 19C108.328 18.3387 109.683 18.008 111.197 18.008ZM127.008 18.008C128.886 18.008 130.358 18.5627 131.424 19.672C132.491 20.7813 133.024 22.5947 133.024 25.112H122.496L122.432 24.504H128.992C129.014 23.4587 128.95 22.4987 128.8 21.624C128.651 20.728 128.416 20.0133 128.096 19.48C127.776 18.9467 127.35 18.68 126.816 18.68C126.07 18.68 125.43 19.1493 124.896 20.088C124.384 21.0267 124.075 22.584 123.968 24.76L124.064 24.952C124.043 25.208 124.022 25.4747 124 25.752C124 26.0293 124 26.3173 124 26.616C124 28.088 124.203 29.2827 124.608 30.2C125.035 31.1173 125.568 31.7893 126.208 32.216C126.848 32.6213 127.499 32.824 128.16 32.824C128.608 32.824 129.067 32.76 129.536 32.632C130.027 32.4827 130.518 32.2267 131.008 31.864C131.499 31.48 131.958 30.9467 132.384 30.264L132.96 30.456C132.704 31.2667 132.299 32.056 131.744 32.824C131.19 33.592 130.486 34.2213 129.632 34.712C128.779 35.2027 127.755 35.448 126.56 35.448C125.11 35.448 123.83 35.1387 122.72 34.52C121.611 33.9013 120.736 32.9627 120.096 31.704C119.478 30.4453 119.168 28.8453 119.168 26.904C119.168 24.92 119.499 23.2667 120.16 21.944C120.843 20.6213 121.771 19.64 122.944 19C124.139 18.3387 125.494 18.008 127.008 18.008ZM141.405 9.944V32.024C141.405 32.92 141.555 33.528 141.853 33.848C142.173 34.168 142.707 34.328 143.453 34.328V35C143.048 34.9787 142.44 34.9573 141.629 34.936C140.819 34.8933 139.997 34.872 139.165 34.872C138.333 34.872 137.491 34.8933 136.637 34.936C135.805 34.9573 135.176 34.9787 134.749 35V34.328C135.496 34.328 136.019 34.168 136.317 33.848C136.637 33.528 136.797 32.92 136.797 32.024V13.784C136.797 12.824 136.648 12.12 136.349 11.672C136.072 11.2027 135.539 10.968 134.749 10.968V10.296C135.432 10.36 136.093 10.392 136.733 10.392C137.608 10.392 138.44 10.36 139.229 10.296C140.019 10.2107 140.744 10.0933 141.405 9.944ZM151.53 9.944V32.024C151.53 32.92 151.68 33.528 151.978 33.848C152.298 34.168 152.832 34.328 153.578 34.328V35C153.173 34.9787 152.565 34.9573 151.754 34.936C150.944 34.8933 150.122 34.872 149.29 34.872C148.458 34.872 147.616 34.8933 146.762 34.936C145.93 34.9573 145.301 34.9787 144.874 35V34.328C145.621 34.328 146.144 34.168 146.442 33.848C146.762 33.528 146.922 32.92 146.922 32.024V13.784C146.922 12.824 146.773 12.12 146.474 11.672C146.197 11.2027 145.664 10.968 144.874 10.968V10.296C145.557 10.36 146.218 10.392 146.858 10.392C147.733 10.392 148.565 10.36 149.354 10.296C150.144 10.2107 150.869 10.0933 151.53 9.944ZM162.883 18.008C164.761 18.008 166.233 18.5627 167.299 19.672C168.366 20.7813 168.899 22.5947 168.899 25.112H158.371L158.307 24.504H164.867C164.889 23.4587 164.825 22.4987 164.675 21.624C164.526 20.728 164.291 20.0133 163.971 19.48C163.651 18.9467 163.225 18.68 162.691 18.68C161.945 18.68 161.305 19.1493 160.771 20.088C160.259 21.0267 159.95 22.584 159.843 24.76L159.939 24.952C159.918 25.208 159.897 25.4747 159.875 25.752C159.875 26.0293 159.875 26.3173 159.875 26.616C159.875 28.088 160.078 29.2827 160.483 30.2C160.91 31.1173 161.443 31.7893 162.083 32.216C162.723 32.6213 163.374 32.824 164.035 32.824C164.483 32.824 164.942 32.76 165.411 32.632C165.902 32.4827 166.393 32.2267 166.883 31.864C167.374 31.48 167.833 30.9467 168.259 30.264L168.835 30.456C168.579 31.2667 168.174 32.056 167.619 32.824C167.065 33.592 166.361 34.2213 165.507 34.712C164.654 35.2027 163.63 35.448 162.435 35.448C160.985 35.448 159.705 35.1387 158.595 34.52C157.486 33.9013 156.611 32.9627 155.971 31.704C155.353 30.4453 155.043 28.8453 155.043 26.904C155.043 24.92 155.374 23.2667 156.035 21.944C156.718 20.6213 157.646 19.64 158.819 19C160.014 18.3387 161.369 18.008 162.883 18.008Z" fill="white"/>
</svg>
