<svg width="25" height="25" viewBox="0 0 25 25" fill="none" xmlns="http://www.w3.org/2000/svg">
<path d="M17.84 5.91313C17.6027 5.91313 17.3707 5.9835 17.1733 6.11536C16.976 6.24722 16.8222 6.43463 16.7313 6.6539C16.6405 6.87318 16.6168 7.11446 16.6631 7.34723C16.7094 7.58001 16.8236 7.79383 16.9915 7.96165C17.1593 8.12948 17.3731 8.24376 17.6059 8.29007C17.8387 8.33637 18.0799 8.31261 18.2992 8.22178C18.5185 8.13096 18.7059 7.97715 18.8378 7.77981C18.9696 7.58247 19.04 7.35046 19.04 7.11312C19.04 6.79487 18.9136 6.48964 18.6885 6.2646C18.4635 6.03955 18.1583 5.91313 17.84 5.91313ZM22.44 8.33313C22.4204 7.50344 22.265 6.68258 21.98 5.90312C21.7269 5.23567 21.331 4.63159 20.82 4.13313C20.3248 3.62055 19.7196 3.2273 19.05 2.98312C18.2727 2.68929 17.4508 2.53033 16.62 2.51312C15.56 2.45312 15.22 2.45312 12.5 2.45312C9.78 2.45312 9.44 2.45312 8.38 2.51312C7.54915 2.53033 6.72734 2.68929 5.95 2.98312C5.28198 3.23038 4.67736 3.62321 4.18 4.13313C3.66743 4.6283 3.27418 5.23356 3.03 5.90312C2.73616 6.68047 2.57721 7.50228 2.56 8.33313C2.5 9.39313 2.5 9.73312 2.5 12.4531C2.5 15.1731 2.5 15.5131 2.56 16.5731C2.57721 17.404 2.73616 18.2258 3.03 19.0031C3.27418 19.6727 3.66743 20.2779 4.18 20.7731C4.67736 21.283 5.28198 21.6759 5.95 21.9231C6.72734 22.217 7.54915 22.3759 8.38 22.3931C9.44 22.4531 9.78 22.4531 12.5 22.4531C15.22 22.4531 15.56 22.4531 16.62 22.3931C17.4508 22.3759 18.2727 22.217 19.05 21.9231C19.7196 21.6789 20.3248 21.2857 20.82 20.7731C21.3322 20.2757 21.7283 19.6713 21.98 19.0031C22.265 18.2237 22.4204 17.4028 22.44 16.5731C22.44 15.5131 22.5 15.1731 22.5 12.4531C22.5 9.73312 22.5 9.39313 22.44 8.33313ZM20.64 16.4531C20.6329 17.0879 20.5179 17.7169 20.3 18.3131C20.1403 18.7483 19.8839 19.1415 19.55 19.4631C19.2254 19.7934 18.8331 20.0493 18.4 20.2131C17.8038 20.4311 17.1748 20.546 16.54 20.5531C15.54 20.6031 15.17 20.6131 12.54 20.6131C9.91 20.6131 9.54 20.6131 8.54 20.5531C7.88085 20.5661 7.22445 20.4646 6.6 20.2531C6.18619 20.0805 5.8119 19.8253 5.5 19.5031C5.16809 19.1819 4.91484 18.7883 4.76 18.3531C4.51505 17.7485 4.3796 17.1052 4.36 16.4531C4.36 15.4531 4.3 15.0831 4.3 12.4531C4.3 9.82312 4.3 9.45312 4.36 8.45312C4.36365 7.8041 4.48214 7.16085 4.71 6.55312C4.88605 6.13104 5.15627 5.75478 5.5 5.45312C5.80292 5.10832 6.17863 4.83507 6.6 4.65312C7.2094 4.4326 7.85194 4.31762 8.5 4.31312C9.5 4.31312 9.87 4.25312 12.5 4.25312C15.13 4.25312 15.5 4.25312 16.5 4.31312C17.1348 4.32021 17.7638 4.43518 18.36 4.65312C18.8144 4.82178 19.2223 5.09597 19.55 5.45312C19.8767 5.76115 20.1326 6.13647 20.3 6.55312C20.5224 7.16201 20.6375 7.80489 20.64 8.45312C20.69 9.45312 20.7 9.82312 20.7 12.4531C20.7 15.0831 20.69 15.4531 20.64 16.4531ZM12.5 7.32312C11.4858 7.3251 10.495 7.62765 9.65265 8.19254C8.81035 8.75744 8.15438 9.55932 7.76763 10.4969C7.38089 11.4344 7.28072 12.4656 7.47979 13.4601C7.67886 14.4545 8.16824 15.3677 8.88608 16.0841C9.60392 16.8005 10.518 17.2881 11.5129 17.4853C12.5077 17.6824 13.5387 17.5802 14.4755 17.1917C15.4123 16.8031 16.2129 16.1456 16.7761 15.3022C17.3394 14.4588 17.64 13.4673 17.64 12.4531C17.6413 11.7782 17.5092 11.1097 17.2512 10.4861C16.9933 9.86243 16.6146 9.29593 16.1369 8.81918C15.6592 8.34242 15.0919 7.9648 14.4678 7.70805C13.8436 7.4513 13.1749 7.32049 12.5 7.32312ZM12.5 15.7831C11.8414 15.7831 11.1976 15.5878 10.65 15.2219C10.1023 14.856 9.67552 14.3359 9.42348 13.7275C9.17144 13.119 9.1055 12.4494 9.23398 11.8035C9.36247 11.1575 9.67963 10.5642 10.1453 10.0985C10.611 9.63275 11.2044 9.3156 11.8503 9.18711C12.4963 9.05862 13.1659 9.12457 13.7743 9.37661C14.3828 9.62865 14.9029 10.0555 15.2688 10.6031C15.6347 11.1507 15.83 11.7945 15.83 12.4531C15.83 12.8904 15.7439 13.3234 15.5765 13.7275C15.4092 14.1315 15.1639 14.4986 14.8547 14.8078C14.5454 15.117 14.1784 15.3623 13.7743 15.5296C13.3703 15.697 12.9373 15.7831 12.5 15.7831Z" fill="white"/>
</svg>
